<svg aria-hidden="true" style="position: absolute; width: 0; height: 0; overflow: hidden;" version="1.1" xmlns="http://www.w3.org/2000/svg" xmlns:xlink="http://www.w3.org/1999/xlink">
<defs>
<symbol id="icon-menu" viewBox="0 0 54 32">
<path stroke-linejoin="miter" stroke-linecap="round" stroke-miterlimit="10" stroke-width="5.0526" d="M3.368 3.368h47.158M3.368 16.842h47.158M3.368 28.632h47.158"></path>
</symbol>
<symbol id="icon-logo" viewBox="0 0 30 32">
<path d="M27.573 6.092l-9.813-5.474c-0.714-0.398-1.655-0.618-2.649-0.618s-1.935 0.219-2.649 0.618l-9.813 5.474c-1.486 0.829-2.649 2.777-2.649 4.434v10.95c0 1.657 1.164 3.605 2.649 4.434l9.813 5.473c0.714 0.398 1.655 0.617 2.649 0.617s1.935-0.219 2.649-0.617l9.813-5.476c1.486-0.829 2.649-2.776 2.649-4.434v-10.951c0-1.653-1.164-3.602-2.649-4.431zM3.197 24.99c-1.138-0.635-2.1-2.245-2.1-3.515v-4.68c3.494-0.266 5.563 0.629 8.147 1.753 2.325 1.012 5.122 2.226 9.691 2.88-0.854 0.158-1.716 0.304-2.575 0.449-4.666 0.787-9.080 1.536-11.493 4.045l-1.671-0.932zM17.937 15.465c-2.109 0.81-4.855 1.536-8.916 1.825-1.796-0.771-3.505-1.422-5.744-1.573l7.461-7.209 7.199 6.957zM17.416 13.462l5.365-5.184 4.033 3.897c-2.321 0.204-3.946 0.999-5.747 1.885-0.628 0.309-1.295 0.636-2.038 0.96l-1.612-1.558zM29.125 21.475c0 1.271-0.962 2.88-2.101 3.515l-9.813 5.475c-0.54 0.302-1.305 0.477-2.1 0.477s-1.56-0.173-2.101-0.476l-7.169-4.001c2.213-2.112 6.347-2.809 10.708-3.545 4.916-0.828 9.976-1.683 12.576-4.75l-0.001 3.304zM29.125 16.189c-1.154 2.418-3.777 3.685-6.904 4.518-5.387-0.378-8.561-1.457-11.163-2.543 5.32-0.616 8.168-2.014 10.505-3.163 2.301-1.131 4.145-2.032 7.562-1.775v2.962zM29.125 12.164c-0.279-0.020-0.551-0.034-0.812-0.040l-5.143-4.97c-0.051-0.049-0.111-0.088-0.178-0.115s-0.138-0.040-0.21-0.040c-0.072 0-0.143 0.014-0.21 0.040s-0.127 0.066-0.178 0.115l-5.752 5.559-5.516-5.329c-0.051-0.049-0.111-0.088-0.178-0.115s-0.138-0.040-0.21-0.040c-0.072 0-0.143 0.014-0.21 0.040s-0.127 0.066-0.178 0.115l-8.603 8.314c-0.212 0.007-0.427 0.018-0.648 0.034v-5.205c0-1.271 0.962-2.881 2.1-3.516l9.813-5.475c0.542-0.302 1.307-0.476 2.101-0.476s1.56 0.173 2.101 0.476l9.813 5.475c1.139 0.635 2.101 2.245 2.101 3.516l-0.003 1.638z"></path>
</symbol>
</defs>
</svg>
